<svg id="svg" xmlns="http://www.w3.org/2000/svg" xmlns:xlink="http://www.w3.org/1999/xlink" width="400" height="400" viewBox="0, 0, 400,400"><g id="svgg"><path id="path0" d="M215.234 51.609 C 184.380 56.392,146.527 93.589,108.050 156.936 C 105.341 161.396,103.133 164.736,103.142 164.358 C 103.151 163.981,103.668 158.047,104.291 151.172 C 109.932 88.891,94.379 59.324,57.397 62.025 C 17.407 64.945,-0.001 103.172,0.001 188.064 C 0.003 284.053,25.152 342.253,69.341 348.533 C 102.377 353.228,126.527 334.093,149.503 285.015 C 151.378 281.011,156.849 269.297,161.660 258.984 C 170.430 240.188,178.833 223.625,183.717 215.510 L 186.328 211.171 186.068 222.578 C 184.684 283.259,215.304 322.030,256.182 311.356 C 279.118 305.367,288.460 294.271,314.089 242.578 C 337.967 194.418,349.460 174.321,374.852 136.328 C 399.203 99.893,400.347 97.532,399.837 84.766 C 399.467 75.515,398.076 72.190,392.530 67.309 C 369.260 46.825,322.685 74.275,273.271 137.597 C 267.092 145.515,266.957 145.631,267.434 142.578 C 276.566 84.215,254.375 45.541,215.234 51.609 " stroke="none" 
	class="svgIco" fill-rule="evenodd"></path></g></svg>