<svg id="svg" xmlns="http://www.w3.org/2000/svg" xmlns:xlink="http://www.w3.org/1999/xlink" width="400" height="400" viewBox="0, 0, 400,400" version="1.1"><g id="svgg"><path id="path0" d="M219.200 50.800 C 219.200 51.033,217.867 51.200,216.000 51.200 C 214.133 51.200,212.800 51.367,212.800 51.600 C 212.800 51.820,211.990 52.000,211.000 52.000 C 210.010 52.000,209.200 52.180,209.200 52.400 C 209.200 52.620,208.660 52.800,208.000 52.800 C 207.340 52.800,206.800 52.980,206.800 53.200 C 206.800 53.420,206.181 53.600,205.424 53.600 C 204.667 53.600,203.936 53.780,203.800 54.000 C 203.664 54.220,203.203 54.400,202.776 54.400 C 202.349 54.400,202.000 54.580,202.000 54.800 C 202.000 55.020,201.460 55.200,200.800 55.200 C 200.140 55.200,199.600 55.380,199.600 55.600 C 199.600 55.820,199.240 56.000,198.800 56.000 C 198.360 56.000,198.000 56.180,198.000 56.400 C 198.000 56.620,197.640 56.800,197.200 56.800 C 196.760 56.800,196.400 56.980,196.400 57.200 C 196.400 57.420,196.040 57.600,195.600 57.600 C 195.160 57.600,194.800 57.780,194.800 58.000 C 194.800 58.220,194.429 58.400,193.976 58.400 C 193.495 58.400,193.262 58.577,193.417 58.827 C 193.562 59.061,193.437 59.204,193.140 59.144 C 192.452 59.004,189.600 60.375,189.600 60.846 C 189.600 61.041,189.240 61.200,188.800 61.200 C 188.360 61.200,188.000 61.380,188.000 61.600 C 188.000 61.820,187.757 62.000,187.459 62.000 C 187.162 62.000,186.354 62.540,185.663 63.200 C 184.972 63.860,184.175 64.400,183.892 64.400 C 183.609 64.400,183.117 64.760,182.800 65.200 C 182.483 65.640,182.015 66.000,181.760 66.000 C 181.505 66.000,180.555 66.720,179.648 67.600 C 178.741 68.480,177.891 69.200,177.760 69.200 C 177.286 69.200,174.832 71.899,175.080 72.147 C 175.219 72.286,175.106 72.400,174.827 72.400 C 174.549 72.400,173.817 72.940,173.200 73.600 C 172.583 74.260,171.882 74.800,171.642 74.800 C 170.648 74.800,159.913 85.520,158.773 87.651 C 158.505 88.151,157.052 89.761,155.543 91.228 C 154.034 92.696,152.800 94.010,152.800 94.150 C 152.800 94.290,151.720 95.512,150.400 96.865 C 149.080 98.218,148.000 99.491,148.000 99.694 C 148.000 99.897,147.282 100.773,146.405 101.642 C 145.527 102.511,144.528 103.766,144.184 104.431 C 143.840 105.097,143.304 105.739,142.994 105.858 C 142.684 105.977,142.316 106.436,142.175 106.878 C 142.035 107.320,141.218 108.405,140.360 109.289 C 139.502 110.173,138.800 111.073,138.800 111.288 C 138.800 111.503,138.260 112.183,137.600 112.800 C 136.940 113.417,136.400 114.092,136.400 114.301 C 136.400 114.510,135.860 115.246,135.200 115.937 C 134.540 116.628,134.000 117.348,134.000 117.537 C 134.000 117.726,133.460 118.446,132.800 119.137 C 132.140 119.828,131.600 120.576,131.600 120.800 C 131.600 121.024,131.060 121.772,130.400 122.463 C 129.740 123.154,129.200 123.922,129.200 124.171 C 129.200 124.420,128.840 124.883,128.400 125.200 C 127.960 125.517,127.600 125.979,127.600 126.226 C 127.600 126.474,127.239 127.003,126.798 127.402 C 126.356 127.802,126.071 128.205,126.165 128.298 C 126.324 128.458,125.627 129.429,124.500 130.616 C 124.225 130.906,124.000 131.416,124.000 131.749 C 124.000 132.082,123.620 132.620,123.157 132.945 C 122.693 133.270,122.419 133.708,122.549 133.918 C 122.679 134.128,122.338 134.635,121.792 135.045 C 121.247 135.454,120.800 136.067,120.800 136.407 C 120.800 136.746,120.440 137.283,120.000 137.600 C 119.560 137.917,119.200 138.457,119.200 138.800 C 119.200 139.143,118.840 139.683,118.400 140.000 C 117.960 140.317,117.600 141.004,117.600 141.526 C 117.600 142.138,117.316 142.549,116.800 142.684 C 116.360 142.799,116.000 143.142,116.000 143.447 C 116.000 143.751,115.850 144.000,115.668 144.000 C 115.485 144.000,115.080 144.495,114.768 145.100 C 114.455 145.705,113.885 146.549,113.500 146.975 C 113.115 147.402,112.800 147.987,112.800 148.275 C 112.800 148.564,112.620 148.800,112.400 148.800 C 112.180 148.800,112.000 149.036,112.000 149.325 C 112.000 149.613,111.640 150.236,111.200 150.708 C 110.760 151.180,110.400 151.844,110.400 152.183 C 110.400 152.522,110.252 152.800,110.070 152.800 C 109.889 152.800,109.242 153.880,108.632 155.200 C 108.023 156.520,107.395 157.600,107.237 157.600 C 107.079 157.600,106.702 158.230,106.400 159.000 C 106.098 159.770,105.704 160.400,105.525 160.400 C 105.346 160.400,105.200 160.681,105.200 161.024 C 105.200 161.367,105.020 161.536,104.800 161.400 C 104.580 161.264,104.400 161.504,104.400 161.934 C 104.400 162.363,104.157 162.808,103.860 162.922 C 103.432 163.086,103.383 162.784,103.624 161.468 C 103.791 160.554,103.826 159.643,103.702 159.442 C 103.578 159.241,103.684 159.205,103.938 159.362 C 104.276 159.571,104.400 158.520,104.400 155.447 C 104.400 153.041,104.573 151.140,104.805 150.997 C 105.043 150.850,105.194 148.955,105.170 146.413 C 105.147 143.969,105.319 141.726,105.564 141.267 C 106.187 140.102,106.169 111.929,105.545 111.305 C 105.272 111.032,105.118 109.652,105.159 107.857 C 105.199 106.147,105.051 104.755,104.814 104.609 C 104.586 104.468,104.400 103.384,104.400 102.200 C 104.400 101.016,104.220 99.936,104.000 99.800 C 103.780 99.664,103.600 98.843,103.600 97.976 C 103.600 97.109,103.420 96.400,103.200 96.400 C 102.980 96.400,102.800 95.781,102.800 95.024 C 102.800 94.267,102.620 93.536,102.400 93.400 C 102.180 93.264,102.000 92.713,102.000 92.176 C 102.000 91.639,101.820 91.200,101.600 91.200 C 101.380 91.200,101.200 90.660,101.200 90.000 C 101.200 89.340,101.020 88.800,100.800 88.800 C 100.580 88.800,100.400 88.260,100.400 87.600 C 100.400 86.940,100.220 86.400,100.000 86.400 C 99.780 86.400,99.600 86.040,99.600 85.600 C 99.600 85.160,99.420 84.800,99.200 84.800 C 98.980 84.800,98.800 84.440,98.800 84.000 C 98.800 83.560,98.620 83.200,98.400 83.200 C 98.180 83.200,98.000 82.840,98.000 82.400 C 98.000 81.960,97.820 81.600,97.600 81.600 C 97.380 81.600,97.200 81.364,97.200 81.075 C 97.200 80.787,96.840 80.164,96.400 79.692 C 95.960 79.220,95.600 78.661,95.600 78.451 C 95.600 78.240,95.060 77.558,94.400 76.935 C 93.740 76.312,93.200 75.662,93.200 75.491 C 93.200 75.122,89.734 71.600,89.371 71.600 C 89.233 71.600,88.617 71.060,88.000 70.400 C 87.383 69.740,86.631 69.200,86.328 69.200 C 86.025 69.200,85.517 68.840,85.200 68.400 C 84.883 67.960,84.303 67.600,83.912 67.600 C 83.520 67.600,83.200 67.420,83.200 67.200 C 83.200 66.980,82.840 66.800,82.400 66.800 C 81.960 66.800,81.600 66.620,81.600 66.400 C 81.600 66.180,81.240 66.000,80.800 66.000 C 80.360 66.000,80.000 65.820,80.000 65.600 C 80.000 65.380,79.640 65.200,79.200 65.200 C 78.760 65.200,78.400 65.020,78.400 64.800 C 78.400 64.580,77.860 64.400,77.200 64.400 C 76.540 64.400,76.000 64.199,76.000 63.953 C 76.000 63.695,75.587 63.586,75.020 63.694 C 74.454 63.802,73.960 63.672,73.850 63.386 C 73.745 63.113,72.971 62.785,72.130 62.656 C 71.288 62.528,69.430 62.218,68.000 61.966 C 64.581 61.366,56.416 61.116,55.400 61.581 C 54.960 61.783,53.610 62.050,52.400 62.176 C 48.360 62.595,46.797 62.882,46.574 63.242 C 46.452 63.439,45.924 63.600,45.400 63.600 C 44.876 63.600,44.336 63.780,44.200 64.000 C 44.064 64.220,43.513 64.400,42.976 64.400 C 42.439 64.400,42.000 64.580,42.000 64.800 C 42.000 65.020,41.640 65.200,41.200 65.200 C 40.760 65.200,40.400 65.380,40.400 65.600 C 40.400 65.820,40.021 66.000,39.557 66.000 C 39.016 66.000,38.788 66.192,38.921 66.538 C 39.068 66.923,38.854 67.023,38.163 66.891 C 37.611 66.785,37.200 66.897,37.200 67.153 C 37.200 67.399,36.840 67.600,36.400 67.600 C 35.960 67.600,35.600 67.780,35.600 68.000 C 35.600 68.220,35.364 68.400,35.075 68.400 C 34.787 68.400,34.164 68.760,33.692 69.200 C 33.220 69.640,32.673 70.000,32.476 70.000 C 32.279 70.000,31.597 70.497,30.959 71.104 C 30.322 71.712,29.170 72.652,28.400 73.194 C 26.830 74.298,25.343 76.010,25.510 76.522 C 25.570 76.708,25.450 76.754,25.242 76.626 C 25.034 76.498,24.625 76.644,24.332 76.952 C 23.345 77.989,22.400 79.208,22.400 79.444 C 22.400 79.573,21.860 80.183,21.200 80.800 C 20.540 81.417,20.000 82.209,20.000 82.560 C 20.000 82.912,19.809 83.200,19.576 83.200 C 19.343 83.200,19.264 83.380,19.400 83.600 C 19.536 83.820,19.367 84.000,19.024 84.000 C 18.681 84.000,18.400 84.278,18.400 84.617 C 18.400 84.956,18.040 85.620,17.600 86.092 C 17.160 86.564,16.800 87.187,16.800 87.475 C 16.800 87.764,16.620 88.000,16.400 88.000 C 16.180 88.000,16.000 88.360,16.000 88.800 C 16.000 89.240,15.799 89.600,15.553 89.600 C 15.304 89.600,15.199 89.953,15.316 90.400 C 15.452 90.920,15.328 91.200,14.963 91.200 C 14.653 91.200,14.400 91.560,14.400 92.000 C 14.400 92.440,14.264 92.800,14.098 92.800 C 13.931 92.800,13.560 93.385,13.271 94.100 C 12.983 94.815,12.579 95.713,12.374 96.095 C 12.168 96.477,12.000 97.062,12.000 97.395 C 12.000 97.728,11.820 98.000,11.600 98.000 C 11.380 98.000,11.200 98.349,11.200 98.776 C 11.200 99.203,11.003 99.675,10.762 99.824 C 10.520 99.973,10.398 100.602,10.489 101.223 C 10.586 101.885,10.478 102.320,10.227 102.276 C 9.992 102.234,9.808 102.650,9.817 103.200 C 9.827 103.750,9.663 104.318,9.453 104.463 C 9.243 104.608,9.034 105.058,8.987 105.463 C 8.743 107.599,8.268 109.566,8.033 109.420 C 7.886 109.330,7.723 109.828,7.670 110.528 C 7.618 111.227,7.400 111.860,7.187 111.933 C 6.974 112.007,6.800 112.581,6.800 113.210 C 6.800 113.838,6.608 114.472,6.373 114.617 C 6.138 114.762,5.998 115.488,6.062 116.231 C 6.126 116.974,5.958 117.802,5.689 118.071 C 5.420 118.340,5.200 119.244,5.200 120.080 C 5.200 120.916,5.019 121.600,4.797 121.600 C 4.573 121.600,4.425 122.435,4.465 123.477 C 4.507 124.613,4.351 125.416,4.068 125.511 C 3.788 125.604,3.600 126.535,3.600 127.833 C 3.600 129.025,3.439 130.000,3.241 130.000 C 3.044 130.000,2.871 131.020,2.856 132.268 C 2.841 133.515,2.651 134.645,2.435 134.779 C 2.218 134.912,2.046 136.151,2.053 137.531 C 2.059 138.911,1.862 140.284,1.614 140.583 C 1.343 140.909,1.211 142.298,1.282 144.063 C 1.372 146.304,1.258 147.111,0.800 147.468 C 0.022 148.074,-0.322 212.960,0.398 223.400 C 0.641 226.920,0.933 231.330,1.048 233.200 C 1.162 235.070,1.424 236.771,1.628 236.980 C 1.833 237.189,2.000 238.494,2.000 239.880 C 2.000 241.293,2.176 242.400,2.400 242.400 C 2.629 242.400,2.800 243.600,2.800 245.200 C 2.800 246.800,2.971 248.000,3.200 248.000 C 3.422 248.000,3.600 249.067,3.600 250.400 C 3.600 251.733,3.778 252.800,4.000 252.800 C 4.220 252.800,4.400 253.790,4.400 255.000 C 4.400 256.210,4.580 257.200,4.800 257.200 C 5.020 257.200,5.200 258.100,5.200 259.200 C 5.200 260.300,5.380 261.200,5.600 261.200 C 5.820 261.200,6.000 262.100,6.000 263.200 C 6.000 264.300,6.180 265.200,6.400 265.200 C 6.620 265.200,6.800 265.920,6.800 266.800 C 6.800 267.680,6.980 268.400,7.200 268.400 C 7.420 268.400,7.600 269.120,7.600 270.000 C 7.600 270.880,7.762 271.600,7.960 271.600 C 8.158 271.600,8.414 272.365,8.529 273.300 C 8.888 276.212,9.131 277.309,9.471 277.559 C 9.652 277.691,9.836 278.340,9.878 279.000 C 10.001 280.895,10.631 283.007,11.050 282.928 C 11.261 282.888,11.361 283.473,11.273 284.228 C 11.175 285.062,11.286 285.600,11.556 285.600 C 11.800 285.600,12.000 286.039,12.000 286.576 C 12.000 287.113,12.180 287.664,12.400 287.800 C 12.620 287.936,12.800 288.476,12.800 289.000 C 12.800 289.524,12.980 290.064,13.200 290.200 C 13.420 290.336,13.600 290.887,13.600 291.424 C 13.600 291.961,13.780 292.400,14.000 292.400 C 14.220 292.400,14.400 292.921,14.400 293.557 C 14.400 294.211,14.658 294.813,14.993 294.942 C 15.320 295.067,15.487 295.428,15.366 295.744 C 15.245 296.060,15.338 296.438,15.573 296.583 C 15.808 296.728,16.000 297.287,16.000 297.824 C 16.000 298.361,16.180 298.800,16.400 298.800 C 16.620 298.800,16.800 299.160,16.800 299.600 C 16.800 300.040,16.980 300.400,17.200 300.400 C 17.420 300.400,17.600 300.839,17.600 301.376 C 17.600 301.913,17.780 302.464,18.000 302.600 C 18.220 302.736,18.400 303.197,18.400 303.624 C 18.400 304.051,18.580 304.400,18.800 304.400 C 19.020 304.400,19.200 304.760,19.200 305.200 C 19.200 305.640,19.346 306.000,19.525 306.000 C 19.704 306.000,20.098 306.630,20.400 307.400 C 20.702 308.170,21.096 308.800,21.275 308.800 C 21.454 308.800,21.600 309.160,21.600 309.600 C 21.600 310.040,21.780 310.400,22.000 310.400 C 22.220 310.400,22.400 310.760,22.400 311.200 C 22.400 311.640,22.580 312.000,22.800 312.000 C 23.020 312.000,23.200 312.360,23.200 312.800 C 23.200 313.240,23.380 313.600,23.600 313.600 C 23.820 313.600,24.000 313.894,24.000 314.253 C 24.000 314.612,24.372 315.229,24.826 315.623 C 25.281 316.017,25.641 316.443,25.626 316.570 C 25.540 317.328,25.673 317.676,26.300 318.326 C 26.685 318.725,27.339 319.707,27.753 320.507 C 28.167 321.308,28.842 322.324,29.253 322.765 C 29.664 323.206,30.000 323.677,30.000 323.812 C 30.000 324.228,31.117 325.200,31.595 325.200 C 31.844 325.200,31.936 325.380,31.800 325.600 C 31.664 325.820,31.743 326.000,31.976 326.000 C 32.209 326.000,32.400 326.272,32.400 326.604 C 32.400 328.042,45.549 340.307,46.502 339.758 C 46.776 339.601,46.871 339.614,46.714 339.789 C 46.397 340.140,48.062 341.600,48.780 341.600 C 49.029 341.600,49.620 341.960,50.092 342.400 C 50.564 342.840,51.187 343.200,51.475 343.200 C 51.764 343.200,52.000 343.380,52.000 343.600 C 52.000 343.820,52.360 344.000,52.800 344.000 C 53.240 344.000,53.600 344.180,53.600 344.400 C 53.600 344.620,53.949 344.800,54.376 344.800 C 54.803 344.800,55.264 344.980,55.400 345.200 C 55.536 345.420,56.087 345.600,56.624 345.600 C 57.161 345.600,57.600 345.801,57.600 346.047 C 57.600 346.306,58.014 346.414,58.588 346.304 C 59.131 346.201,59.484 346.264,59.372 346.446 C 59.259 346.628,59.670 346.883,60.284 347.012 C 60.898 347.142,61.713 347.417,62.095 347.624 C 62.477 347.831,63.321 348.000,63.971 348.000 C 64.621 348.000,65.264 348.180,65.400 348.400 C 65.536 348.620,66.987 348.800,68.624 348.800 C 70.341 348.800,71.600 348.969,71.600 349.200 C 71.600 349.451,74.200 349.600,78.600 349.600 C 83.000 349.600,85.600 349.451,85.600 349.200 C 85.600 348.974,86.733 348.800,88.200 348.800 C 89.667 348.800,90.800 348.626,90.800 348.400 C 90.800 348.180,91.520 348.000,92.400 348.000 C 93.280 348.000,94.000 347.820,94.000 347.600 C 94.000 347.380,94.540 347.200,95.200 347.200 C 95.860 347.200,96.400 347.020,96.400 346.800 C 96.400 346.580,96.940 346.400,97.600 346.400 C 98.260 346.400,98.800 346.220,98.800 346.000 C 98.800 345.780,99.340 345.600,100.000 345.600 C 100.660 345.600,101.200 345.420,101.200 345.200 C 101.200 344.980,101.560 344.800,102.000 344.800 C 102.440 344.800,102.800 344.620,102.800 344.400 C 102.800 344.180,103.160 344.000,103.600 344.000 C 104.040 344.000,104.400 343.820,104.400 343.600 C 104.400 343.380,104.760 343.200,105.200 343.200 C 105.640 343.200,106.000 343.020,106.000 342.800 C 106.000 342.580,106.270 342.400,106.600 342.400 C 106.930 342.400,107.200 342.240,107.200 342.043 C 107.200 341.847,107.609 341.584,108.108 341.459 C 108.607 341.334,109.410 340.864,109.891 340.415 C 110.373 339.967,110.962 339.600,111.201 339.600 C 111.750 339.600,113.600 337.773,113.600 337.231 C 113.600 337.008,113.844 336.919,114.142 337.033 C 114.744 337.264,121.600 330.760,121.600 329.958 C 121.600 329.688,121.715 329.582,121.856 329.723 C 122.139 330.006,125.200 326.816,125.200 326.238 C 125.200 326.038,125.920 325.169,126.800 324.307 C 127.680 323.444,128.400 322.571,128.400 322.366 C 128.400 322.161,128.940 321.428,129.600 320.737 C 130.260 320.046,130.800 319.278,130.800 319.029 C 130.800 318.780,131.160 318.317,131.600 318.000 C 132.040 317.683,132.400 317.143,132.400 316.800 C 132.400 316.457,132.760 315.917,133.200 315.600 C 133.640 315.283,134.000 314.786,134.000 314.495 C 134.000 314.204,134.360 313.580,134.800 313.108 C 135.240 312.636,135.600 312.013,135.600 311.725 C 135.600 311.436,135.780 311.200,136.000 311.200 C 136.220 311.200,136.400 310.964,136.400 310.675 C 136.400 310.387,136.715 309.802,137.100 309.375 C 137.485 308.949,138.070 308.060,138.399 307.400 C 138.729 306.740,139.089 306.110,139.199 306.000 C 139.679 305.522,141.258 302.337,141.412 301.537 C 141.505 301.054,141.720 300.556,141.891 300.429 C 142.061 300.303,142.258 299.930,142.330 299.600 C 142.401 299.270,142.626 298.940,142.830 298.867 C 143.033 298.793,143.200 298.268,143.200 297.700 C 143.200 297.132,143.315 296.782,143.456 296.923 C 143.713 297.179,145.016 295.211,145.458 293.900 C 145.587 293.515,145.852 293.200,146.047 293.200 C 146.241 293.200,146.400 292.840,146.400 292.400 C 146.400 291.960,146.580 291.600,146.800 291.600 C 147.020 291.600,147.200 291.240,147.200 290.800 C 147.200 290.360,147.380 290.000,147.600 290.000 C 147.820 290.000,148.000 289.735,148.000 289.412 C 148.000 289.089,148.360 288.183,148.800 287.400 C 149.240 286.617,149.600 285.711,149.600 285.388 C 149.600 285.065,149.799 284.800,150.043 284.800 C 150.286 284.800,150.379 284.523,150.250 284.185 C 150.115 283.835,150.269 283.472,150.607 283.342 C 150.933 283.217,151.200 282.774,151.200 282.357 C 151.200 281.941,151.380 281.600,151.600 281.600 C 151.820 281.600,152.000 281.240,152.000 280.800 C 152.000 280.360,152.201 280.000,152.447 280.000 C 152.696 280.000,152.801 279.647,152.684 279.200 C 152.548 278.680,152.672 278.400,153.037 278.400 C 153.347 278.400,153.600 278.040,153.600 277.600 C 153.600 277.160,153.780 276.800,154.000 276.800 C 154.220 276.800,154.400 276.440,154.400 276.000 C 154.400 275.560,154.580 275.200,154.800 275.200 C 155.020 275.200,155.200 274.928,155.200 274.595 C 155.200 274.262,155.364 273.677,155.565 273.295 C 156.991 270.579,158.800 266.427,158.800 265.870 C 158.800 265.502,158.980 265.200,159.200 265.200 C 159.420 265.200,159.600 264.840,159.600 264.400 C 159.600 263.960,159.780 263.600,160.000 263.600 C 160.220 263.600,160.400 263.161,160.400 262.624 C 160.400 262.087,160.580 261.536,160.800 261.400 C 161.020 261.264,161.200 260.803,161.200 260.376 C 161.200 259.949,161.380 259.600,161.600 259.600 C 161.820 259.600,162.000 259.330,162.000 259.000 C 162.000 258.670,162.180 258.400,162.400 258.400 C 162.620 258.400,162.800 258.040,162.800 257.600 C 162.800 257.160,162.980 256.800,163.200 256.800 C 163.420 256.800,163.600 256.440,163.600 256.000 C 163.600 255.560,163.780 255.200,164.000 255.200 C 164.220 255.200,164.400 254.840,164.400 254.400 C 164.400 253.960,164.580 253.600,164.800 253.600 C 165.020 253.600,165.200 253.328,165.200 252.995 C 165.200 252.662,165.367 252.077,165.571 251.695 C 166.083 250.736,166.537 249.453,166.476 249.138 C 166.448 248.994,166.690 248.657,167.013 248.389 C 167.336 248.121,167.600 247.564,167.600 247.151 C 167.600 246.738,167.780 246.400,168.000 246.400 C 168.220 246.400,168.400 246.040,168.400 245.600 C 168.400 245.160,168.580 244.800,168.800 244.800 C 169.020 244.800,169.200 244.440,169.200 244.000 C 169.200 243.560,169.380 243.200,169.600 243.200 C 169.820 243.200,170.000 242.855,170.000 242.433 C 170.000 242.012,170.141 241.607,170.313 241.533 C 170.683 241.376,175.200 232.342,175.200 231.760 C 175.200 231.118,176.172 229.207,176.500 229.203 C 176.665 229.201,176.800 228.840,176.800 228.400 C 176.800 227.960,176.980 227.600,177.200 227.600 C 177.420 227.600,177.600 227.364,177.600 227.075 C 177.600 226.787,177.969 226.155,178.420 225.670 C 178.872 225.186,179.130 224.611,178.995 224.392 C 178.860 224.173,179.031 223.886,179.375 223.754 C 179.719 223.622,180.000 223.264,180.000 222.957 C 180.000 222.651,180.180 222.400,180.400 222.400 C 180.620 222.400,180.800 222.040,180.800 221.600 C 180.800 221.160,180.980 220.800,181.200 220.800 C 181.420 220.800,181.600 220.522,181.600 220.183 C 181.600 219.844,181.960 219.180,182.400 218.708 C 182.840 218.236,183.200 217.613,183.200 217.325 C 183.200 217.036,183.380 216.800,183.600 216.800 C 183.820 216.800,184.000 216.440,184.000 216.000 C 184.000 215.560,184.159 215.200,184.353 215.200 C 184.548 215.200,184.811 214.803,184.937 214.317 C 185.513 212.116,185.664 214.800,185.622 226.530 C 185.592 234.780,185.718 239.173,185.985 239.263 C 186.222 239.342,186.411 241.041,186.434 243.300 C 186.456 245.445,186.638 247.200,186.837 247.200 C 187.037 247.200,187.200 248.460,187.200 250.000 C 187.200 251.600,187.371 252.800,187.600 252.800 C 187.820 252.800,188.000 253.574,188.000 254.520 C 188.000 255.466,188.201 256.441,188.448 256.688 C 188.694 256.934,188.885 257.870,188.873 258.768 C 188.860 259.665,189.019 260.400,189.225 260.400 C 189.431 260.400,189.600 261.120,189.600 262.000 C 189.600 262.880,189.780 263.600,190.000 263.600 C 190.220 263.600,190.400 264.230,190.400 265.000 C 190.400 265.770,190.580 266.400,190.800 266.400 C 191.020 266.400,191.200 266.940,191.200 267.600 C 191.200 268.260,191.341 268.800,191.513 268.800 C 191.685 268.800,191.866 269.285,191.915 269.878 C 191.964 270.470,192.144 271.055,192.315 271.178 C 192.487 271.300,192.641 271.670,192.658 272.000 C 192.723 273.285,193.317 275.200,193.650 275.200 C 193.843 275.200,194.000 275.560,194.000 276.000 C 194.000 276.440,194.180 276.800,194.400 276.800 C 194.620 276.800,194.800 277.125,194.800 277.521 C 194.800 278.537,196.804 282.445,197.199 282.201 C 197.379 282.090,197.443 282.315,197.342 282.701 C 197.241 283.088,197.527 283.801,197.979 284.285 C 198.431 284.770,198.800 285.444,198.800 285.783 C 198.800 286.122,198.980 286.400,199.200 286.400 C 199.420 286.400,199.600 286.636,199.600 286.925 C 199.600 287.213,199.915 287.798,200.300 288.225 C 200.685 288.651,201.255 289.495,201.568 290.100 C 201.880 290.705,202.385 291.200,202.691 291.200 C 202.997 291.200,203.140 291.373,203.010 291.584 C 202.879 291.795,203.679 292.893,204.786 294.025 C 205.894 295.156,206.800 296.247,206.800 296.449 C 206.800 296.831,211.022 301.200,211.391 301.200 C 211.505 301.200,212.341 301.920,213.248 302.800 C 214.155 303.680,215.062 304.400,215.265 304.400 C 215.468 304.400,216.020 304.760,216.492 305.200 C 216.964 305.640,217.587 306.000,217.875 306.000 C 218.164 306.000,218.400 306.180,218.400 306.400 C 218.400 306.620,218.760 306.800,219.200 306.800 C 219.640 306.800,220.000 306.953,220.000 307.139 C 220.000 307.326,220.765 307.794,221.700 308.180 C 222.635 308.566,223.713 309.044,224.095 309.241 C 224.477 309.438,225.062 309.600,225.395 309.600 C 225.728 309.600,226.000 309.780,226.000 310.000 C 226.000 310.220,226.540 310.400,227.200 310.400 C 227.860 310.400,228.400 310.580,228.400 310.800 C 228.400 311.020,228.940 311.200,229.600 311.200 C 230.260 311.200,230.800 311.380,230.800 311.600 C 230.800 311.820,231.509 312.000,232.376 312.000 C 233.243 312.000,234.064 312.180,234.200 312.400 C 234.338 312.623,236.196 312.800,238.400 312.800 C 240.604 312.800,242.462 312.977,242.600 313.200 C 242.921 313.719,245.493 313.721,245.667 313.203 C 245.740 312.985,247.473 312.775,249.518 312.736 C 251.562 312.698,253.328 312.516,253.441 312.333 C 253.555 312.150,254.256 312.000,255.000 312.000 C 255.744 312.000,256.464 311.820,256.600 311.600 C 256.736 311.380,257.276 311.200,257.800 311.200 C 258.324 311.200,258.864 311.020,259.000 310.800 C 259.136 310.580,259.676 310.400,260.200 310.400 C 260.724 310.400,261.264 310.220,261.400 310.000 C 261.536 309.780,262.087 309.600,262.624 309.600 C 263.161 309.600,263.600 309.436,263.600 309.235 C 263.600 309.034,264.332 308.747,265.228 308.595 C 266.423 308.393,266.796 308.166,266.632 307.739 C 266.498 307.391,266.580 307.264,266.837 307.423 C 267.318 307.720,272.400 305.269,272.400 304.740 C 272.400 304.553,272.670 304.400,273.000 304.400 C 273.330 304.400,273.600 304.259,273.600 304.086 C 273.600 303.914,274.095 303.480,274.700 303.121 C 276.344 302.149,277.619 300.953,277.326 300.659 C 277.183 300.517,277.367 300.400,277.733 300.400 C 278.100 300.400,278.400 300.232,278.400 300.027 C 278.400 299.822,278.784 299.532,279.253 299.383 C 280.134 299.104,286.000 293.357,286.000 292.773 C 286.000 292.592,286.810 291.685,287.800 290.757 C 288.790 289.829,289.600 288.911,289.600 288.717 C 289.600 288.524,290.050 287.880,290.600 287.287 C 291.150 286.693,291.600 285.931,291.600 285.592 C 291.600 285.254,291.960 284.717,292.400 284.400 C 292.840 284.083,293.200 283.543,293.200 283.200 C 293.200 282.857,293.560 282.317,294.000 282.000 C 294.440 281.683,294.800 281.103,294.800 280.712 C 294.800 280.320,294.980 280.000,295.200 280.000 C 295.420 280.000,295.600 279.640,295.600 279.200 C 295.600 278.760,295.791 278.400,296.024 278.400 C 296.257 278.400,296.336 278.220,296.200 278.000 C 296.064 277.780,296.233 277.600,296.576 277.600 C 296.933 277.600,297.200 277.258,297.200 276.800 C 297.200 276.360,297.346 276.000,297.525 276.000 C 297.704 276.000,298.098 275.370,298.400 274.600 C 298.702 273.830,299.096 273.200,299.275 273.200 C 299.454 273.200,299.600 272.840,299.600 272.400 C 299.600 271.960,299.752 271.600,299.937 271.600 C 300.123 271.600,300.708 270.745,301.237 269.700 C 301.767 268.655,302.335 267.740,302.500 267.667 C 302.665 267.593,302.800 267.188,302.800 266.767 C 302.800 266.345,302.980 266.000,303.200 266.000 C 303.420 266.000,303.600 265.640,303.600 265.200 C 303.600 264.760,303.780 264.400,304.000 264.400 C 304.220 264.400,304.400 264.040,304.400 263.600 C 304.400 263.160,304.580 262.800,304.800 262.800 C 305.020 262.800,305.200 262.440,305.200 262.000 C 305.200 261.560,305.401 261.200,305.647 261.200 C 305.906 261.200,306.014 260.786,305.904 260.212 C 305.801 259.669,305.859 259.313,306.033 259.421 C 306.354 259.619,308.800 254.864,308.800 254.043 C 308.800 253.799,308.980 253.600,309.200 253.600 C 309.420 253.600,309.600 253.240,309.600 252.800 C 309.600 252.360,309.780 252.000,310.000 252.000 C 310.220 252.000,310.400 251.640,310.400 251.200 C 310.400 250.760,310.580 250.400,310.800 250.400 C 311.020 250.400,311.200 250.155,311.200 249.856 C 311.200 249.404,312.372 246.788,314.046 243.505 C 314.241 243.123,314.400 242.538,314.400 242.205 C 314.400 241.872,314.580 241.600,314.800 241.600 C 315.020 241.600,315.200 241.330,315.200 241.000 C 315.200 240.670,315.380 240.400,315.600 240.400 C 315.820 240.400,316.000 240.040,316.000 239.600 C 316.000 239.160,316.180 238.800,316.400 238.800 C 316.620 238.800,316.800 238.440,316.800 238.000 C 316.800 237.560,316.980 237.200,317.200 237.200 C 317.420 237.200,317.600 236.840,317.600 236.400 C 317.600 235.960,317.780 235.600,318.000 235.600 C 318.220 235.600,318.400 235.240,318.400 234.800 C 318.400 234.360,318.601 234.000,318.847 234.000 C 319.096 234.000,319.201 233.647,319.084 233.200 C 318.948 232.680,319.072 232.400,319.437 232.400 C 319.747 232.400,320.000 232.040,320.000 231.600 C 320.000 231.160,320.201 230.800,320.447 230.800 C 320.696 230.800,320.801 230.447,320.684 230.000 C 320.548 229.480,320.672 229.200,321.037 229.200 C 321.347 229.200,321.600 228.840,321.600 228.400 C 321.600 227.960,321.780 227.600,322.000 227.600 C 322.220 227.600,322.400 227.255,322.400 226.833 C 322.400 226.412,322.542 226.007,322.715 225.933 C 323.172 225.739,325.200 221.437,325.200 220.660 C 325.200 220.297,325.380 220.000,325.600 220.000 C 325.820 220.000,326.000 219.640,326.000 219.200 C 326.000 218.760,326.180 218.400,326.400 218.400 C 326.620 218.400,326.800 218.040,326.800 217.600 C 326.800 217.160,326.980 216.800,327.200 216.800 C 327.420 216.800,327.600 216.455,327.600 216.033 C 327.600 215.612,327.735 215.207,327.900 215.133 C 328.276 214.966,329.575 212.836,329.871 211.900 C 329.993 211.515,330.252 211.200,330.447 211.200 C 330.641 211.200,330.800 210.840,330.800 210.400 C 330.800 209.960,330.980 209.600,331.200 209.600 C 331.420 209.600,331.600 209.240,331.600 208.800 C 331.600 208.360,331.746 208.000,331.925 208.000 C 332.104 208.000,332.498 207.370,332.800 206.600 C 333.102 205.830,333.496 205.200,333.675 205.200 C 333.854 205.200,334.000 204.840,334.000 204.400 C 334.000 203.960,334.180 203.600,334.400 203.600 C 334.620 203.600,334.800 203.240,334.800 202.800 C 334.800 202.360,334.995 202.000,335.233 202.000 C 335.472 202.000,335.597 201.791,335.512 201.536 C 335.427 201.280,335.772 200.624,336.279 200.077 C 336.785 199.531,337.200 198.739,337.200 198.318 C 337.200 197.897,337.380 197.664,337.600 197.800 C 337.820 197.936,338.000 197.677,338.000 197.224 C 338.000 196.771,338.180 196.400,338.400 196.400 C 338.620 196.400,338.800 196.055,338.800 195.633 C 338.800 195.212,338.948 194.807,339.128 194.733 C 339.699 194.501,341.997 189.519,341.731 189.089 C 341.584 188.851,341.672 188.797,341.938 188.962 C 342.192 189.119,342.400 189.049,342.400 188.807 C 342.400 188.565,342.760 187.980,343.200 187.508 C 343.640 187.036,344.003 186.188,344.006 185.625 C 344.011 184.816,344.094 184.727,344.400 185.200 C 344.714 185.685,344.789 185.628,344.794 184.900 C 344.797 184.405,344.980 184.000,345.200 184.000 C 345.420 184.000,345.600 183.764,345.600 183.475 C 345.600 183.187,345.960 182.564,346.400 182.092 C 346.840 181.620,347.200 180.956,347.200 180.617 C 347.200 180.278,347.380 180.000,347.600 180.000 C 347.820 180.000,348.000 179.680,348.000 179.288 C 348.000 178.897,348.360 178.317,348.800 178.000 C 349.240 177.683,349.600 177.103,349.600 176.712 C 349.600 176.320,349.780 176.000,350.000 176.000 C 350.220 176.000,350.400 175.730,350.400 175.400 C 350.400 175.070,350.580 174.800,350.800 174.800 C 351.020 174.800,351.200 174.530,351.200 174.200 C 351.200 173.870,351.336 173.600,351.502 173.600 C 351.669 173.600,352.064 173.015,352.380 172.300 C 352.697 171.585,353.280 170.651,353.678 170.225 C 354.075 169.798,354.400 169.213,354.400 168.925 C 354.400 168.636,354.580 168.400,354.800 168.400 C 355.020 168.400,355.200 168.040,355.200 167.600 C 355.200 167.160,355.350 166.800,355.532 166.800 C 355.715 166.800,356.120 166.305,356.432 165.700 C 356.745 165.095,357.235 164.352,357.523 164.048 C 357.811 163.745,357.948 163.241,357.828 162.928 C 357.707 162.615,357.782 162.465,357.993 162.596 C 358.204 162.726,358.501 162.330,358.652 161.716 C 358.804 161.102,359.259 160.309,359.664 159.953 C 360.069 159.597,360.400 159.102,360.400 158.853 C 360.400 158.604,360.580 158.400,360.800 158.400 C 361.020 158.400,361.200 158.130,361.200 157.800 C 361.200 157.470,361.380 157.200,361.600 157.200 C 361.820 157.200,362.000 156.930,362.000 156.600 C 362.000 156.270,362.159 156.000,362.353 156.000 C 362.697 156.000,363.330 154.504,363.243 153.900 C 363.219 153.735,363.470 153.600,363.800 153.600 C 364.130 153.600,364.400 153.306,364.400 152.947 C 364.400 152.588,364.781 151.963,365.247 151.559 C 365.737 151.135,365.996 150.565,365.860 150.212 C 365.731 149.875,365.812 149.600,366.041 149.600 C 366.633 149.600,367.600 148.556,367.600 147.917 C 367.600 147.620,367.960 147.117,368.400 146.800 C 368.840 146.483,369.200 145.943,369.200 145.600 C 369.200 145.257,369.560 144.717,370.000 144.400 C 370.440 144.083,370.800 143.569,370.800 143.259 C 370.800 142.948,371.170 142.373,371.622 141.981 C 372.075 141.588,372.472 140.905,372.505 140.461 C 372.539 140.018,372.691 139.688,372.844 139.728 C 373.211 139.823,375.200 136.905,375.200 136.271 C 375.200 135.999,375.560 135.517,376.000 135.200 C 376.440 134.883,376.800 134.343,376.800 134.000 C 376.800 133.657,377.160 133.117,377.600 132.800 C 378.040 132.483,378.400 131.943,378.400 131.600 C 378.400 131.257,378.760 130.717,379.200 130.400 C 379.640 130.083,380.000 129.543,380.000 129.200 C 380.000 128.857,380.360 128.317,380.800 128.000 C 381.240 127.683,381.600 127.238,381.600 127.012 C 381.601 126.785,382.006 126.120,382.500 125.534 C 384.265 123.441,384.607 122.975,385.168 121.894 C 385.480 121.292,385.885 120.800,386.068 120.800 C 386.250 120.800,386.400 120.564,386.400 120.275 C 386.400 119.987,386.715 119.402,387.100 118.975 C 387.485 118.549,388.055 117.705,388.368 117.100 C 388.680 116.495,389.085 116.000,389.268 116.000 C 389.450 116.000,389.600 115.640,389.600 115.200 C 389.600 114.760,389.767 114.400,389.971 114.400 C 390.175 114.400,390.660 113.680,391.048 112.800 C 391.436 111.920,391.899 111.200,392.077 111.200 C 392.255 111.200,392.400 110.840,392.400 110.400 C 392.400 109.960,392.580 109.600,392.800 109.600 C 393.020 109.600,393.200 109.409,393.200 109.176 C 393.200 108.943,392.992 108.881,392.738 109.038 C 392.452 109.215,392.385 109.148,392.562 108.862 C 392.719 108.608,393.107 108.400,393.424 108.400 C 393.741 108.400,394.000 108.040,394.000 107.600 C 394.000 107.160,394.180 106.800,394.400 106.800 C 394.620 106.800,394.800 106.545,394.800 106.233 C 394.800 105.922,394.935 105.607,395.100 105.533 C 395.599 105.312,397.200 101.978,397.200 101.162 C 397.200 100.743,397.401 100.400,397.647 100.400 C 397.896 100.400,398.001 100.047,397.884 99.600 C 397.748 99.080,397.872 98.800,398.237 98.800 C 398.592 98.800,398.800 98.369,398.800 97.633 C 398.800 96.992,399.025 96.392,399.300 96.300 C 399.682 96.172,399.800 93.751,399.800 86.000 C 399.800 78.249,399.682 75.827,399.300 75.700 C 399.025 75.608,398.800 75.188,398.800 74.767 C 398.800 74.345,398.620 74.000,398.400 74.000 C 398.180 74.000,398.000 73.640,398.000 73.200 C 398.000 72.760,397.820 72.400,397.600 72.400 C 397.380 72.400,397.200 72.159,397.200 71.864 C 397.200 71.340,393.633 67.302,393.345 67.500 C 393.265 67.555,393.204 67.506,393.209 67.391 C 393.225 67.014,391.246 65.200,390.818 65.200 C 390.588 65.200,390.400 65.050,390.400 64.867 C 390.400 64.405,385.656 62.000,384.744 62.000 C 384.335 62.000,384.000 61.820,384.000 61.600 C 384.000 61.380,383.471 61.200,382.824 61.200 C 382.177 61.200,381.536 61.020,381.400 60.800 C 381.264 60.580,380.184 60.400,379.000 60.400 C 377.816 60.400,376.736 60.220,376.600 60.000 C 376.190 59.337,375.496 59.551,375.766 60.257 C 375.975 60.801,375.916 60.828,375.419 60.416 C 375.067 60.124,374.071 59.977,373.011 60.062 C 372.016 60.141,371.134 60.024,371.051 59.803 C 370.958 59.555,370.696 59.592,370.370 59.900 C 370.063 60.190,368.791 60.400,367.344 60.400 C 365.971 60.400,364.736 60.580,364.600 60.800 C 364.464 61.020,363.744 61.200,363.000 61.200 C 362.256 61.200,361.536 61.380,361.400 61.600 C 361.264 61.820,360.747 62.000,360.252 62.000 C 359.756 62.000,358.970 62.355,358.505 62.788 C 357.899 63.352,357.594 63.438,357.429 63.088 C 357.251 62.707,357.149 62.710,356.967 63.100 C 356.838 63.375,356.309 63.600,355.790 63.600 C 355.272 63.600,354.736 63.780,354.600 64.000 C 354.464 64.220,354.003 64.400,353.576 64.400 C 353.149 64.400,352.800 64.580,352.800 64.800 C 352.800 65.020,352.440 65.200,352.000 65.200 C 351.560 65.200,351.200 65.380,351.200 65.600 C 351.200 65.820,350.840 66.000,350.400 66.000 C 349.960 66.000,349.600 66.180,349.600 66.400 C 349.600 66.620,349.240 66.800,348.800 66.800 C 348.360 66.800,348.000 66.980,348.000 67.200 C 348.000 67.420,347.640 67.600,347.200 67.600 C 346.760 67.600,346.400 67.780,346.400 68.000 C 346.400 68.220,346.040 68.400,345.600 68.400 C 345.160 68.400,344.800 68.580,344.800 68.800 C 344.800 69.020,344.530 69.200,344.200 69.200 C 343.870 69.200,343.600 69.380,343.600 69.600 C 343.600 69.820,343.319 70.000,342.976 70.000 C 342.633 70.000,342.464 70.180,342.600 70.400 C 342.736 70.620,342.477 70.800,342.024 70.800 C 341.571 70.800,341.200 70.980,341.200 71.200 C 341.200 71.420,340.880 71.600,340.488 71.600 C 340.097 71.600,339.517 71.960,339.200 72.400 C 338.883 72.840,338.343 73.200,338.000 73.200 C 337.657 73.200,337.117 73.560,336.800 74.000 C 336.483 74.440,335.903 74.800,335.512 74.800 C 335.120 74.800,334.800 74.968,334.800 75.173 C 334.800 75.378,334.440 75.660,334.000 75.800 C 333.560 75.940,333.200 76.306,333.200 76.614 C 333.200 76.923,332.955 77.081,332.655 76.966 C 332.355 76.850,331.590 77.306,330.956 77.978 C 330.322 78.650,329.604 79.200,329.361 79.200 C 329.118 79.200,328.354 79.740,327.663 80.400 C 326.972 81.060,326.317 81.600,326.206 81.600 C 326.095 81.600,325.085 82.500,323.961 83.600 C 322.838 84.700,321.752 85.600,321.549 85.600 C 321.000 85.600,317.617 89.083,317.895 89.361 C 318.026 89.493,317.833 89.600,317.467 89.600 C 317.100 89.600,316.800 89.780,316.800 90.000 C 316.800 90.220,316.512 90.400,316.160 90.400 C 315.348 90.400,293.105 112.723,293.416 113.226 C 293.543 113.432,293.356 113.600,293.000 113.600 C 292.644 113.600,292.464 113.780,292.600 114.000 C 292.736 114.220,292.646 114.400,292.400 114.400 C 292.154 114.400,292.064 114.580,292.200 114.800 C 292.336 115.020,292.253 115.200,292.015 115.200 C 291.224 115.200,287.123 119.621,287.354 120.225 C 287.476 120.541,287.388 120.800,287.159 120.800 C 286.576 120.800,285.586 121.852,285.886 122.152 C 286.022 122.289,285.917 122.400,285.653 122.400 C 285.389 122.400,284.543 123.030,283.773 123.800 C 283.003 124.570,282.505 125.200,282.665 125.200 C 282.825 125.200,282.328 125.785,281.560 126.500 C 280.793 127.215,279.731 128.430,279.201 129.200 C 278.671 129.970,277.887 130.915,277.458 131.300 C 277.029 131.685,276.840 132.005,277.039 132.012 C 277.237 132.019,277.085 132.208,276.700 132.432 C 276.315 132.656,275.703 133.416,275.341 134.120 C 274.978 134.824,274.348 135.691,273.941 136.047 C 273.533 136.403,273.200 136.876,273.200 137.099 C 273.200 137.321,272.480 138.245,271.600 139.152 C 270.720 140.059,270.000 140.962,270.000 141.158 C 270.000 141.355,269.460 142.093,268.800 142.800 L 267.600 144.085 267.600 142.842 C 267.600 142.159,267.780 141.600,268.000 141.600 C 268.231 141.600,268.400 140.341,268.400 138.624 C 268.400 136.987,268.572 135.541,268.782 135.411 C 268.992 135.281,269.166 133.170,269.168 130.720 C 269.171 127.984,269.338 126.162,269.601 125.999 C 270.363 125.529,269.556 100.711,268.748 99.737 C 268.532 99.477,268.348 98.349,268.339 97.232 C 268.330 96.114,268.160 95.099,267.962 94.976 C 267.763 94.853,267.600 93.953,267.600 92.976 C 267.600 91.999,267.420 91.200,267.200 91.200 C 266.980 91.200,266.800 90.480,266.800 89.600 C 266.800 88.720,266.620 88.000,266.400 88.000 C 266.180 88.000,266.000 87.471,266.000 86.824 C 266.000 86.177,265.820 85.536,265.600 85.400 C 265.380 85.264,265.200 84.713,265.200 84.176 C 265.200 83.639,265.020 83.200,264.800 83.200 C 264.580 83.200,264.400 82.660,264.400 82.000 C 264.400 81.340,264.220 80.800,264.000 80.800 C 263.780 80.800,263.600 80.350,263.600 79.800 C 263.600 79.250,263.420 78.800,263.200 78.800 C 262.980 78.800,262.800 78.528,262.800 78.195 C 262.800 77.437,261.958 75.901,261.317 75.489 C 261.051 75.319,260.935 74.914,261.059 74.589 C 261.184 74.265,261.086 74.000,260.843 74.000 C 260.599 74.000,260.400 73.640,260.400 73.200 C 260.400 72.760,260.220 72.400,260.000 72.400 C 259.780 72.400,259.600 72.211,259.600 71.981 C 259.600 71.554,256.912 67.164,256.428 66.800 C 256.281 66.690,255.723 65.970,255.187 65.200 C 253.633 62.965,248.400 58.207,248.400 59.028 C 248.400 59.190,248.064 58.935,247.653 58.461 C 247.242 57.988,246.652 57.600,246.341 57.600 C 246.031 57.600,245.517 57.240,245.200 56.800 C 244.883 56.360,244.303 56.000,243.912 56.000 C 243.520 56.000,243.200 55.820,243.200 55.600 C 243.200 55.380,242.840 55.200,242.400 55.200 C 241.960 55.200,241.599 55.065,241.597 54.900 C 241.593 54.494,239.614 53.600,238.720 53.600 C 238.324 53.600,238.000 53.420,238.000 53.200 C 238.000 52.980,237.460 52.800,236.800 52.800 C 236.140 52.800,235.600 52.620,235.600 52.400 C 235.600 52.180,234.880 52.000,234.000 52.000 C 233.120 52.000,232.400 51.820,232.400 51.600 C 232.400 51.371,231.200 51.200,229.600 51.200 C 228.000 51.200,226.800 51.029,226.800 50.800 C 226.800 50.561,225.267 50.400,223.000 50.400 C 220.733 50.400,219.200 50.561,219.200 50.800 " stroke="none" fill="#ffffff" fill-rule="evenodd"></path><path id="path1" d="M371.200 59.903 C 371.200 60.069,372.014 60.141,373.010 60.062 C 374.071 59.977,375.067 60.124,375.419 60.416 C 375.916 60.828,375.975 60.801,375.766 60.257 C 375.506 59.577,371.200 59.244,371.200 59.903 " stroke="none" fill="#ffffff" fill-rule="evenodd"></path></g></svg>